<svg id="Layer_1" data-name="Layer 1" xmlns="http://www.w3.org/2000/svg" viewBox="0 0 740 148.83"><defs><style>.cls-1{fill:#00ad1d;}.cls-2{fill:#0065da;}.cls-3{fill:#fe5400;}.cls-4{fill:#d9641f;}.cls-5{fill:#00e94e;}.cls-6{fill:#0094fe;}.cls-7{fill:#fe8500;}.cls-8{fill:#00e14b;}.cls-9{fill:#0090f8;}.cls-10{fill:#fe7f00;}.cls-11{fill:#008cf0;}.cls-12{fill:#00d949;}.cls-13{fill:#f77900;}.cls-14{fill:#00d246;}.cls-15{fill:#0087e7;}.cls-16{fill:#ef7500;}.cls-17{fill:#00ca44;}.cls-18{fill:#00d146;}.cls-19{fill:#c77000;}.cls-20{fill:#0084e2;}.cls-21{fill:#feae00;}.cls-22{fill:#0082df;}.cls-23{fill:#00c341;}.cls-24{fill:#e57000;}.cls-25{fill:#b76700;}.cls-26{fill:#df6d00;}.cls-27{fill:#00bc3d;}.cls-28{fill:#dd6c00;}</style></defs><path class="cls-1" d="M134.73,72.62a2.28,2.28,0,0,1,.09,1c0,9,.07,18,0,27.05-.09,8.41-3.72,14.88-11.09,19.08-14.64,8.35-29.32,16.62-43.94,25a28.32,28.32,0,0,1-9.25,3.74A18.78,18.78,0,0,1,57.2,146c-7.08-4.31-14.3-8.4-21.45-12.6a2.06,2.06,0,0,1-.79-.55c-.31-.21-.31-.54-.35-.86-.76-6.18-1.58-12.35-2.33-18.53a1.46,1.46,0,0,1,.06-1c.42-.27.74,0,1,.21q7.44,4.17,14.9,8.28c5.13,2.83,10.24,5.69,15.37,8.52l3.55,2a1.23,1.23,0,0,0,1.32,0l20-11.14c6.53-3.63,13-7.29,19.6-10.9,2.37-1.31,4.73-2.63,7.08-4a5.33,5.33,0,0,0,2.46-3.22,9.82,9.82,0,0,0,.43-3c0-4.24.06-8.48,0-12.72.13-.61.66-.89,1.07-1.23,4.9-4.09,9.83-8.13,14.71-12.24C134.07,72.83,134.33,72.56,134.73,72.62Z"/><path class="cls-2" d="M32.58,112.46c-.24.07-.17.27-.15.43q1.26,10,2.53,20c-.32.32-.54,0-.76-.15C26,128,17.59,123.39,9.47,118.4A19.89,19.89,0,0,1,.41,104.94c-.66-3.21-.33-6.46-.3-9.69C.2,83.53.35,71.81.47,60.08c.05-4.21,0-8.42.12-12.63C.8,39.17,4.13,32.74,11.65,28.71c7.08-3.79,14.09-7.7,21.13-11.56.28-.15.54-.33.82-.5s.68-.37,1-.64a1.11,1.11,0,0,1,.83.18c5.37,2.64,10.76,5.23,16.16,7.82.35.17.8.26.89.76a.51.51,0,0,1-.22.35L31,37.36c-3.5,2-7,4.07-10.5,6a6.53,6.53,0,0,0-3.65,6.23q.08,25,0,49.94a5.42,5.42,0,0,0,3.08,5.2c4,2.26,8,4.6,12,6.9.3.18.66.3.8.67C32.77,112.45,32.7,112.49,32.58,112.46Z"/><path class="cls-3" d="M52.4,24.73c-2.4-1.18-4.8-2.37-7.21-3.54l-9.62-4.66c-.33-.15-.62-.44-1-.37a.12.12,0,0,1-.05-.13c0-.05,0-.07,0-.07l19-10.89c1.68-1,3.38-1.9,5-2.9A16.81,16.81,0,0,1,68.91.08,25.75,25.75,0,0,1,79.7,3.64C94.37,12.05,109,20.56,123.76,28.77c5.93,3.3,9.08,8.2,10.46,14.57a46.63,46.63,0,0,1,.69,10.55q-.1,9.36-.18,18.73L118.16,86.38a.39.39,0,0,1-.18-.22,4.7,4.7,0,0,1-.09-1.4q0-17.54,0-35.07a8.68,8.68,0,0,0-1.35-5.12,6.59,6.59,0,0,0-2.43-1.86L84.68,25.83l-15.85-9.1a1.52,1.52,0,0,0-1.65,0c-4.6,2.57-9.18,5.17-13.8,7.7C53.07,24.6,52.8,24.87,52.4,24.73Z"/><path d="M348.78,58.31v1.77c0,8.21,0,16.42,0,24.63,0,1-.23,1.32-1.29,1.3-3.59-.08-7.18-.05-10.77,0-.79,0-1-.22-1-1q0-25.05,0-50.1c0-.77.18-1,1-1,3,0,6.07.07,9.1,0,.89,0,1.23.48,1.64,1l18.89,25.33,1,1.35V59.93c0-8.25,0-16.51,0-24.76,0-1.06.25-1.31,1.29-1.29,3.54.07,7.09.06,10.63,0,.93,0,1.14.25,1.14,1.15q0,24.92,0,49.82c0,.92-.24,1.16-1.15,1.14-2.89-.06-5.78,0-8.67,0a2,2,0,0,1-1.84-.91Q359.41,72.44,350,59.86C349.68,59.46,349.36,59.06,348.78,58.31Z"/><path d="M214.69,87.12c-6.19-.18-12.38-1.37-18-4.74-1.08-.64-1.45-1.19-.87-2.47,1.25-2.75,2.33-5.58,3.4-8.4.33-.85.59-.86,1.33-.38a26.55,26.55,0,0,0,16.14,4.49,10.28,10.28,0,0,0,3.66-.8,3.51,3.51,0,0,0,2.37-3,3.47,3.47,0,0,0-1.91-3.45,23,23,0,0,0-6.43-2.25,68.73,68.73,0,0,1-8.55-2.53c-5.71-2.29-9.38-6.19-9.7-12.58-.34-6.78,2.25-12.07,8.3-15.44a22.44,22.44,0,0,1,9.34-2.62,33.78,33.78,0,0,1,19,3.71c.83.44,1.12.8.72,1.79-1.17,2.88-2.23,5.81-3.27,8.75-.32.9-.57,1.11-1.5.57a23.24,23.24,0,0,0-13.3-3.5,9.6,9.6,0,0,0-3.9,1,4,4,0,0,0-2.3,3.71,3.56,3.56,0,0,0,2.26,3.26c2.41,1.28,5.09,1.72,7.7,2.4a55.37,55.37,0,0,1,7.33,2.25c5.22,2.15,8.67,5.75,9.2,11.58s-1.33,11-6.22,14.58C225.2,86.22,220.18,87,214.69,87.12Z"/><path d="M238.62,59.81c0-8.21,0-16.42,0-24.62,0-1,.18-1.34,1.26-1.31q5.32.12,10.63,0c1.14,0,1.46.22,1.46,1.42,0,12.49,0,25-.07,37.48,0,1.34.4,1.59,1.63,1.58,6.49-.06,13,0,19.45-.06,1.19,0,1.46.36,1.44,1.49-.08,3-.06,6.06,0,9.09,0,.84-.18,1.11-1.07,1.11q-16.86,0-33.72,0c-1,0-1-.41-1-1.15Q238.64,72.33,238.62,59.81Z"/><path d="M192.57,59.94c0,8.26,0,16.51,0,24.77,0,1-.22,1.32-1.28,1.3-3.64-.08-7.28-.06-10.92,0-.91,0-1.14-.23-1.14-1.14q0-24.91,0-49.82c0-.9.2-1.17,1.13-1.15,3.64,0,7.28.06,10.92,0,1,0,1.3.23,1.3,1.29C192.55,43.43,192.57,51.68,192.57,59.94Z"/><path d="M622.75,59.94c0-8.25,0-16.51,0-24.77,0-1.06.27-1.3,1.31-1.3q14.84.08,29.67,0c1,0,1.45.19,1.3,1.27s.5,2.67-.27,3.32-2.13.19-3.24.19c-7.51,0-15,0-22.53,0-1,0-1.25.18-1.24,1.19q.07,8.11,0,16.24c0,.93.26,1.14,1.16,1.13,7.28,0,14.55,0,21.83-.05,1.1,0,1.41.28,1.39,1.38-.07,3.36,0,3.36-3.41,3.36-6.58,0-13.16,0-19.74,0-1,0-1.24.2-1.23,1.2q.07,8.48,0,16.94c0,1,.21,1.23,1.2,1.23,8.59,0,17.17,0,25.76-.06,1.07,0,1.48.24,1.36,1.35s.32,2.57-.24,3.23-2.1.2-3.21.2c-9.51,0-19,0-28.55,0-1,0-1.32-.2-1.32-1.28C622.77,76.46,622.75,68.2,622.75,59.94Z"/><path d="M707.05,75.56a22.12,22.12,0,0,0,17.29,6.22,14.8,14.8,0,0,0,5.92-1.46,8.17,8.17,0,0,0,4.82-7.73c0-3.4-1.67-5.72-4.57-7.26-3.2-1.7-6.73-2.42-10.16-3.41a41.18,41.18,0,0,1-6.18-2.17c-5.54-2.59-8.1-6.62-7.9-12.46s3.31-10.57,8.85-12.5a24.86,24.86,0,0,1,22,2.45c.8.48,1,.94.59,1.77-.5,1-.91,2.12-1.35,3.18-1-.53-1.91-1.09-2.88-1.6a20.55,20.55,0,0,0-15.16-1.89c-5.3,1.4-8.07,5.9-6.89,10.91a8,8,0,0,0,4.47,5.26A44.7,44.7,0,0,0,725,58a51.65,51.65,0,0,1,7.25,2.48c5.15,2.33,7.87,6.23,7.77,12s-2.72,9.86-7.92,12.29c-7.73,3.62-19.85,1.78-25.93-3.83-.8-.74-1.09-1.35-.48-2.36A29.52,29.52,0,0,0,707.05,75.56Z"/><path d="M182.92,118.78q15.53-.45,31-.87,35.11-1,70.22-1.88c7.84-.21,15.67-.4,23.5-.65,1,0,1.28.19,1.23,1.19a49.84,49.84,0,0,0,0,5c0,.87-.21,1.09-1.08,1.06-4.05-.16-8.11-.23-12.17-.34l-103.5-2.83-8.4-.25c-.26-.18-.58,0-.85-.17A.21.21,0,0,1,182.92,118.78Z"/><path d="M734.11,119.25l-54.69,1.48q-34.35.94-68.68,1.94c-1.46,0-1.92-.3-1.78-1.77a30.31,30.31,0,0,0,0-4.47c-.05-.89.23-1.08,1.08-1.05q17.28.51,34.55.94l37.49,1L735,118.78a.2.2,0,0,1,.06.2c0,.07,0,.1,0,.1C734.69,119.21,734.37,119.07,734.11,119.25Z"/><path d="M455.53,62.41c0,7.37,0,14.74,0,22.11,0,1.09-.15,1.63-1.4,1.48s-2.71.38-3.37-.21-.24-2.27-.24-3.47q0-21.12,0-42.26c0-1.18-.29-1.44-1.44-1.42-4.66.07-9.33,0-14,0-.93,0-1.21-.25-1.14-1.15.1-1.16-.38-2.71.2-3.38s2.27-.25,3.46-.25c11,0,22,0,33,0,1.07,0,1.52.22,1.37,1.35s.46,2.54-.23,3.23-2.12.19-3.23.2c-4,0-7.93.05-11.89,0-1,0-1.21.29-1.2,1.24C455.55,47.39,455.53,54.9,455.53,62.41Z"/><path d="M359.88,118.79c0-4.48,0-9,0-13.43,0-.82.08-1.24,1.09-1.22s1.15.26,1.14,1.16c-.05,3.73,0,7.46,0,11.19,0,.83.1,1.2,1.1,1.2q8.73-.09,17.48,0c.92,0,1.06-.28,1.05-1.1,0-3.78,0-7.56,0-11.33,0-.82.13-1.14,1.05-1.11s1.2.15,1.19,1.13q-.06,13.58,0,27.14c0,.88-.16,1.19-1.12,1.2s-1.11-.35-1.11-1.19c0-3.87,0-7.74,0-11.61,0-.92-.12-1.28-1.17-1.26q-8.67.08-17.35,0c-.95,0-1.12.3-1.11,1.17,0,3.91,0,7.83,0,11.75,0,.76,0,1.2-1,1.13-.79-.06-1.24-.06-1.23-1.1C359.92,127.93,359.88,123.36,359.88,118.79Z"/><path d="M543.16,118.94c0,4.43,0,8.86,0,13.29,0,.93-.06,1.39-1.22,1.39-1.32,0-1-.77-1-1.44,0-3.83,0-7.65,0-11.47,0-.89-.19-1.17-1.13-1.16q-8.67.08-17.34,0c-1.06,0-1.18.37-1.17,1.27,0,3.87,0,7.75,0,11.62,0,.86-.15,1.18-1.11,1.18s-1.12-.35-1.12-1.21q0-13.56,0-27.14c0-1,.37-1.08,1.2-1.12s1,.32,1,1.12c0,3.77,0,7.55,0,11.33,0,.84.16,1.1,1,1.09,5.83,0,11.66-.05,17.49,0,1,0,1.09-.39,1.09-1.21,0-3.64,0-7.27,0-10.91,0-.79-.18-1.47,1.13-1.45s1.06.79,1.06,1.53Q543.17,112.29,543.16,118.94Z"/><path d="M503.09,133.87a15.88,15.88,0,0,1-9.61-3.22c-.46-.37-1-.67-.47-1.47s.67-.83,1.41-.27a14.48,14.48,0,0,0,13.21,2.43,6.2,6.2,0,0,0,2.44-1.3,4.9,4.9,0,0,0-.44-7.91c-1.94-1.29-4.21-1.69-6.41-2.26a30.47,30.47,0,0,1-5.82-1.9,6.45,6.45,0,0,1-4-6.08,6.68,6.68,0,0,1,3.81-6.51c5-2.41,10-1.88,14.87.7,1,.52.36,1,.15,1.6-.34.91-.81.25-1.17,0a14.71,14.71,0,0,0-10.39-1.6,7.46,7.46,0,0,0-2.34.89,5.22,5.22,0,0,0-2.76,4.84,4.74,4.74,0,0,0,2.88,4.29c2.33,1.22,4.93,1.62,7.44,2.3a20,20,0,0,1,4.44,1.63,6.85,6.85,0,0,1,.71,11.71C508.79,133.44,506.13,133.82,503.09,133.87Z"/><path d="M344,133.87a15.84,15.84,0,0,1-9.73-3.2c-.35-.27-1-.51-.65-1.19s.54-1.36,1.63-.52c3.91,3,8.35,3.64,13.09,2.39a6.33,6.33,0,0,0,2.34-1.19,4.92,4.92,0,0,0-.38-8.08c-1.91-1.24-4.13-1.64-6.28-2.2a29.4,29.4,0,0,1-6-1.95,6.42,6.42,0,0,1-3.88-5.85,7,7,0,0,1,3.4-6.48c3.95-2.49,11.59-2.19,15.37.51.9.65.2,1.12,0,1.64-.33.85-.77.16-1.07,0a14.62,14.62,0,0,0-10.39-1.62,7.48,7.48,0,0,0-2.47.94,5.2,5.2,0,0,0-2.68,4.75,4.73,4.73,0,0,0,2.83,4.31c2.34,1.23,4.94,1.63,7.44,2.31a20.13,20.13,0,0,1,4.58,1.68,6.85,6.85,0,0,1,.77,11.56C349.63,133.41,346.93,133.8,344,133.87Z"/><path d="M553.56,118.94c0,4.48,0,9,0,13.43,0,.78,0,1.3-1.06,1.24-.87-.05-1.17-.2-1.17-1.15q.06-13.59,0-27.16c0-.92.26-1.13,1.16-1.17s1.08.43,1.07,1.23C553.55,109.88,553.56,114.41,553.56,118.94Z"/><path class="cls-4" d="M34.51,16l0,.2a1.83,1.83,0,0,1-.93.49C33.72,16.17,34.19,16.16,34.51,16Z"/><path d="M736.9,118.78A3.86,3.86,0,0,1,735,119a1.93,1.93,0,0,1,0-.24Z"/><path class="cls-5" d="M118.12,86.26a.56.56,0,0,1,0,.12,3.85,3.85,0,0,1,.14,1.22c0,4,0,7.89,0,11.84a7.74,7.74,0,0,1-1.75,5.23,7.23,7.23,0,0,1-2.09,1.44q-10.7,6-21.41,12c-4.93,2.75-9.88,5.47-14.81,8.22q-4.89,2.72-9.77,5.48a1,1,0,0,1-1.19,0c-5.57-3.11-11.16-6.18-16.74-9.28l-18-10a.71.71,0,0,0,.15-.08,1.48,1.48,0,0,1,.86-.57c3.89-1.61,7.76-3.26,11.64-4.87a13.56,13.56,0,0,1,1.6-.73,4.08,4.08,0,0,1,1.33-.3c1.66.76,3.2,1.75,4.8,2.61,3,1.58,5.81,3.36,8.86,4.76a17.27,17.27,0,0,0,16.66-.85c6.44-3.68,12.89-7.33,19.26-11.13a18.33,18.33,0,0,0,6-5.26,15.49,15.49,0,0,0,2.49-7.1,101,101,0,0,0,.37-11.54c0-.43-.11-.89.25-1.25.34-.15.55.09.77.28,1.42,1.22,2.76,2.53,4.15,3.79,1.94,1.75,3.81,3.56,5.78,5.28A2.69,2.69,0,0,1,118.12,86.26Z"/><path class="cls-6" d="M46.89,106.39c-2.94,1.45-6,2.58-9,3.88-1.69.73-3.41,1.41-5.12,2.11L20.05,105.1c-1.57-.9-3-1.91-3.31-3.86a7.27,7.27,0,0,1-.07-1.14c0-16.88,0-33.75,0-50.62a6.7,6.7,0,0,1,3.79-6.32c7.13-4,14.2-8.18,21.3-12.27l9.62-5.55c.28-.16.58-.27.87-.41A1.31,1.31,0,0,1,52.4,26C52,30,51.45,34,51,38a4.38,4.38,0,0,1-.2.94,2,2,0,0,1-1,1.25c-3.34,2-6.72,3.91-10,6a23.05,23.05,0,0,0-5.58,4.7,16.83,16.83,0,0,0-3.68,9.75c-.42,5.43-.11,10.88-.18,16.32,0,3-.05,6,0,9a25,25,0,0,0,.81,6,15,15,0,0,0,6.32,8.45c2.43,1.7,5.09,3,7.68,4.51.41.23.83.45,1.22.71S47,106,46.89,106.39Z"/><path class="cls-7" d="M50.58,39.07l1.65-14.14.17-.2q7.43-4.15,14.84-8.31a1.37,1.37,0,0,1,1.54,0q10.41,6,20.84,12c5,2.9,10.1,5.76,15.14,8.65q5.33,3,10.62,6.11c1.64,1,2.21,2.59,2.57,4.32a20,20,0,0,1,.18,4q0,17.4,0,34.81c-2.32-1.93-4.46-4.05-6.7-6.08l-4.42-4c-.44-.2-.89-.41-1-1,.07-4.77.09-9.54,0-14.31a17.24,17.24,0,0,0-1.46-6.69,15.31,15.31,0,0,0-6.22-6.81c-3.78-2.34-7.74-4.36-11.62-6.53C83,38.78,79.3,36.62,75.44,34.78A16.39,16.39,0,0,0,69,33.11a17.73,17.73,0,0,0-9.42,2.56c-2.68,1.48-5.25,3.15-7.93,4.64-.39.22-.76.59-1.29.31C50,40,50.6,39.6,50.58,39.07Z"/><path d="M434.8,57.83c-.35-5.76-2.05-11.07-5.91-15.5-5.08-5.82-11.74-8.21-19.25-8.37-7.32-.15-14.64,0-22-.07-1.09,0-1.28.3-1.27,1.31,0,8.21,0,16.41,0,24.62s0,16.6,0,24.9c0,1.07.28,1.34,1.31,1.27,1.48-.09,3,0,4.47,0,6.85-.13,13.73.45,20.55-.3,8.37-.92,15-4.8,19.07-12.41A28.24,28.24,0,0,0,434.8,57.83Zm-14.26,7.89a11.92,11.92,0,0,1-10.88,8.46c-3,.16-6.06,0-9.09.09-1,0-.84-.58-.84-1.17V59.8c0-4.33,0-8.67,0-13,0-.88.18-1.21,1.14-1.18,2.71.08,5.41,0,8.12.06a12,12,0,0,1,11.73,9A18.49,18.49,0,0,1,420.54,65.72Z"/><path d="M332.4,85.25Q322.31,60,312.23,34.74a1.18,1.18,0,0,0-1.34-.85c-3.63,0-7.28.06-10.91,0a1.53,1.53,0,0,0-1.71,1.17q-9.9,25-19.84,49.9c-.12.29-.47.6-.17,1,4.14,0,8.3,0,12.45,0,.77,0,1-.32,1.25-1,1-2.71,2-5.41,2.94-8.13.24-.67.49-1,1.34-1q9,.07,17.92,0a1.22,1.22,0,0,1,1.37,1c1,2.72,2,5.42,2.94,8.13.18.5.27,1,1.08,1,4.33,0,8.66,0,13.09,0C332.54,85.67,332.48,85.46,332.4,85.25ZM310,65.06c-3.26-.08-6.52,0-9.77,0-.63,0-1.11.06-.77-.87,1.89-5.12,3.74-10.25,5.6-15.39.55.19.51.7.64,1.06,1.71,4.65,3.38,9.33,5.09,14C311.15,64.69,311.22,65.08,310,65.06Z"/><path d="M614.91,57.5c-.79-13.81-10.84-23.45-24.68-23.58-6.07-.06-12.13,0-18.2-.05-1.08,0-1.38.25-1.38,1.37.06,8.21,0,16.42,0,24.63s0,16.61,0,24.91c0,.81.06,1.23,1.08,1.23,6.44-.06,12.89.18,19.31-.09,10-.42,17.49-5,21.67-14.34A29.69,29.69,0,0,0,614.91,57.5Zm-11.1,18.43a19.29,19.29,0,0,1-13.46,5.26c-4.52.1-9.05,0-13.57,0-.95,0-1.13-.28-1.12-1.16,0-6.72,0-13.43,0-20.15s0-13.33,0-20c0-1,.25-1.31,1.29-1.29,4.15.07,8.3,0,12.45,0,11.84,0,20,7.69,20.66,19.54C610.42,64.94,608.85,71.09,603.81,75.93Z"/><path d="M513.33,84.62,503.28,69c-.31-.48-.67-.83.22-1.2C510,65.13,513,60,513.41,53.21c.34-5.56-.87-10.69-5.16-14.63-3.7-3.4-8.26-4.57-13.13-4.65-5.69-.09-11.38,0-17.07-.06-1.13,0-1.46.23-1.46,1.43.05,15.62,0,31.24,0,46.86,0,1.24-.55,2.94.25,3.6s2.4.12,3.64.24c1,.09,1.12-.33,1.11-1.18,0-4.66,0-9.32-.05-14,0-1.22.35-1.4,1.46-1.41,4.8,0,9.61.25,14.4-.16.72-.06.86.45,1.12.85,2.55,3.95,5.07,7.91,7.64,11.85.88,1.35,1.39,3.3,2.79,3.86s3.3.11,5.17.1Zm-17-20c-4.65.24-9.32.06-14,.13-1,0-.74-.59-.74-1.1q0-6,0-12c0-3.92,0-7.83,0-11.75,0-.91.12-1.29,1.17-1.26,4.8.17,9.61-.29,14.39.25,9.09,1,12.15,7.7,11.16,15.11C507.44,60.5,503.17,64.3,496.34,64.64Z"/><path d="M700.89,84.62,690.85,69c-.31-.48-.68-.84.21-1.2,6.51-2.67,9.49-7.82,9.91-14.58.35-5.57-.87-10.69-5.16-14.63-3.69-3.4-8.26-4.57-13.13-4.65-5.69-.09-11.38,0-17.06-.06-1.14,0-1.47.23-1.47,1.43.05,15.67,0,31.33,0,47,0,1.2-.53,2.78.25,3.47s2.22.09,3.37.23,1.41-.35,1.39-1.46c-.06-4.57,0-9.14,0-13.71,0-1,.13-1.4,1.31-1.4,4.84,0,9.69.25,14.54-.16.71-.06.85.45,1.11.85,2.55,3.95,5.08,7.91,7.64,11.85.88,1.35,1.39,3.3,2.8,3.86s3.29.11,5.16.1C701.38,85.39,701.14,85,700.89,84.62Zm-17.09-20c-4.6.21-9.22.06-13.84.12-.91,0-.79-.5-.79-1.06q0-6,0-12c0-4,0-8,0-12,0-.47-.19-1,.68-1,5,.14,10-.33,14.95.25,8.9,1,12,7.5,11.09,14.91C695.09,60.46,690.73,64.34,683.8,64.65Z"/><path d="M565.64,84.74Q555.83,61,546,37.18c-1.36-3.27-1.36-3.21-4.87-3.31-1.16,0-1.57.4-2,1.39Q531,55.14,522.81,75c-1.5,3.64-3,7.29-4.52,11,1.5,0,2.85-.06,4.2,0,.82,0,1.12-.28,1.39-1,1.58-4,3.22-8,4.79-12a1.37,1.37,0,0,1,1.53-1q12,0,24.06,0a1.27,1.27,0,0,1,1.41,1c1.14,2.95,2.33,5.88,3.52,8.8.58,1.42.84,3.39,1.91,4s3.07.18,4.65.19a1.91,1.91,0,0,0,.34-.08C565.94,85.5,565.8,85.12,565.64,84.74Zm-34.7-17.27,11.25-27.81,11.24,27.81Z"/><path d="M482.58,131.33c-.92-.78-1.66-1.76-2.52-2.61a1,1,0,0,1-.2-1.45,22.37,22.37,0,0,0,1.94-5.21c.25-.91-.3-.94-.88-1.2-.88-.38-.82.31-.91.73a18.67,18.67,0,0,1-1.9,5c-2.77-2.92-5.48-5.81-8.22-8.66-.51-.54-.24-.71.23-1A16.34,16.34,0,0,0,475,113a5.48,5.48,0,0,0-2.49-8.69,8.93,8.93,0,0,0-6.55.29,5.38,5.38,0,0,0-3.36,5c-.14,2.76,1.36,4.77,3.1,6.63.59.63.69.91-.16,1.39a18.69,18.69,0,0,0-4.51,3.51c-3.79,4.13-2.53,9.92,2.74,11.77,5.07,1.77,9.84,1.09,13.89-2.7.61-.57.87-.51,1.37.06,1.13,1.29,2.33,2.52,3.46,3.72C483.92,133.11,483.72,132.29,482.58,131.33Zm-18-20.76c0-2.57,1-4.07,2.92-4.71a6.75,6.75,0,0,1,3.59-.19,4,4,0,0,1,2.44,6.38c-1.26,1.74-3.15,2.73-4.93,3.83-.21.13-.46.21-.64,0C466.36,114.18,464.63,112.56,464.55,110.57Zm11.87,18.37a10.8,10.8,0,0,1-7.92,3.17,10.53,10.53,0,0,1-4.59-1.05,5.43,5.43,0,0,1-1.89-8.21,17.8,17.8,0,0,1,5.18-4.18c.44-.28.65-.08.93.21,2.78,2.94,5.56,5.89,8.37,8.8C477,128.21,476.82,128.51,476.42,128.94Z"/><path d="M404.63,103.89c-8.76,0-15.31,6.37-15.35,14.92s6.54,15,15.36,15,15.29-6.34,15.34-14.91S413.46,103.89,404.63,103.89Zm-.05,28a12.77,12.77,0,0,1-13.11-13.05c0-7.49,5.67-13,13.28-13a13,13,0,1,1-.17,26.05Z"/><path d="M438.94,104.46c-4.35-.65-8.75-.15-13.12-.3-1,0-.7.66-.7,1.15,0,4.52,0,9,0,13.56s0,9,0,13.57c0,.91.24,1.14,1.15,1.17s1.09-.41,1.08-1.22c0-2.37,0-4.75,0-7.13,0-1,.19-1.23,1.19-1.24,3.49,0,7,.34,10.47-.27,3.71-.64,6.67-2.37,8-6.14C449.06,111.31,445.53,105.46,438.94,104.46Zm5.84,12.7c-1.31,3.53-4.3,4.63-7.65,4.85-3,.2-6.06,0-9.09.1-.83,0-.74-.44-.74-1,0-2.38,0-4.75,0-7.13s0-4.67,0-7c0-.47-.09-.93.67-.89,3.53.14,7.09-.31,10.61.28C444,107.3,446.68,112,444.78,117.16Z"/><path d="M576.46,104.64c-2.72-.69-5.47-.39-7.85-.47s-4.09,0-6,0c-.73,0-1,.18-.95.93q0,13.78,0,27.55c0,1.06.55.91,1.21,1s1.05-.14,1-1c-.06-2.24,0-4.48,0-6.71,0-1.86,0-1.83,1.78-1.87,3.31-.07,6.62.26,9.91-.28,5-.82,8.24-4.23,8.45-8.94C584.29,109.49,581.65,106,576.46,104.64Zm5,12.35c-1.28,3.67-4.35,4.81-7.82,5-3,.19-6,0-8.95.09-.77,0-.8-.34-.79-.92,0-2.38,0-4.76,0-7.14s0-4.66,0-7c0-.42-.2-1,.61-.93,3.54.14,7.1-.31,10.62.27C580.49,107.27,583.24,111.86,581.47,117Z"/><path class="cls-8" d="M106.12,75.29l.88.88c-.29.26-.18.61-.18.92,0,2.35.09,4.71,0,7.06a42.1,42.1,0,0,1-.64,6.71,15,15,0,0,1-6.71,9.62c-3.32,2.22-6.86,4.07-10.3,6.1s-6.81,3.92-10.22,5.88a18.47,18.47,0,0,1-11.09,2.77,22.35,22.35,0,0,1-8.52-2.9c-2.84-1.54-5.64-3.15-8.45-4.73L48.1,106c0-.34.3-.4.52-.52.59-.14,1.07-.61,1.72-.56a115.42,115.42,0,0,0,12.79,7c4.87,2.18,9.66,1.67,14.26-.89,6.28-3.48,12.5-7.09,18.68-10.75a18.68,18.68,0,0,0,5.77-4.74,15,15,0,0,0,2.78-8c.3-3.9.18-7.82.2-11.73,0-.44-.16-1,.48-1.19A.86.86,0,0,1,106.12,75.29Z"/><path class="cls-9" d="M48.66,105.69l-.56.35-1.21.35a15,15,0,0,0-3.5-2.16,55,55,0,0,1-7.45-4.66,15,15,0,0,1-5.49-9.73,44.71,44.71,0,0,1-.36-6.23c0-7,0-14,0-21a21.19,21.19,0,0,1,1.47-7.81,16.71,16.71,0,0,1,5.54-7C40.77,45,44.87,43,48.7,40.52c.66-.42,1.59-.54,1.88-1.45l-.12,1.58c.28.41.11.76-.13,1.11-2.52,1.57-5.11,3-7.63,4.61a33.93,33.93,0,0,0-6,4.5,16,16,0,0,0-4.6,9.41,44.31,44.31,0,0,0-.34,5.63c-.07,5.77-.08,11.54,0,17.31a30.62,30.62,0,0,0,.65,7,14.1,14.1,0,0,0,3.33,6.23c2.52,2.75,5.73,4.49,8.91,6.27,1.13.63,2.28,1.24,3.39,1.91C48.42,104.86,49,105,48.66,105.69Z"/><path class="cls-10" d="M50.23,41.71l.23-1.06c2.21-1.08,4.27-2.44,6.39-3.69a32.33,32.33,0,0,1,7.28-3.5,14.87,14.87,0,0,1,8.49,0,43.21,43.21,0,0,1,8.57,4.09c2.88,1.59,5.76,3.17,8.63,4.77,3.18,1.77,6.46,3.37,9.47,5.42A14.75,14.75,0,0,1,106,58.35a32.66,32.66,0,0,1,.33,4.63c0,3.8,0,7.6,0,11.39,0,.31.12.66-.16.92l-.7-.53a4,4,0,0,1-1.23-1,1.19,1.19,0,0,1-.19-.35,5.09,5.09,0,0,1-.07-1.23c0-3.51.07-7,0-10.52a14.93,14.93,0,0,0-3.12-9.38A19.56,19.56,0,0,0,95,47.84c-5.78-3.3-11.63-6.47-17.45-9.7a33.91,33.91,0,0,0-4.33-2,13.75,13.75,0,0,0-11.29.69c-3.56,1.73-6.86,3.9-10.28,5.88-.3.18-.6.36-.92.52s-.62,0-.69-.37A1.48,1.48,0,0,1,50.23,41.71Z"/><path class="cls-11" d="M50.23,41.71v1.17a1.32,1.32,0,0,1-.15.39,18.56,18.56,0,0,1-2.83,1.8,70.81,70.81,0,0,0-8.06,5.24A15.25,15.25,0,0,0,33.33,61c-.23,2.19-.29,4.4-.32,6.6-.07,4.61-.06,9.24,0,13.86,0,2.11.09,4.22.32,6.33a13.78,13.78,0,0,0,5.53,9.86,75.48,75.48,0,0,0,8.5,5.2c.82.47,1.67.89,2.46,1.39.27.17.58.3.65.67a.16.16,0,0,1-.21.13l-1.6.65c0-.66-.56-.76-1-1-2.7-1.55-5.48-3-8.08-4.67a18.47,18.47,0,0,1-5.73-5.64,13.22,13.22,0,0,1-2-5.85c-.71-7.87-.3-15.76-.32-23.64a23.71,23.71,0,0,1,.85-7.29,16.16,16.16,0,0,1,3.32-6.05c2.63-2.94,6-4.88,9.32-6.88l4.14-2.49A2.88,2.88,0,0,1,50.23,41.71Z"/><path class="cls-12" d="M50.26,105l.16-.07a.86.86,0,0,1,1-.37c2.94,1.63,5.84,3.31,8.8,4.9a20.37,20.37,0,0,0,8.74,2.82A13.77,13.77,0,0,0,75,111.09a80.89,80.89,0,0,0,8.45-4.57c3.84-2.19,7.66-4.38,11.46-6.63a26.09,26.09,0,0,0,4.53-3.2,12.92,12.92,0,0,0,4-7.32,32.88,32.88,0,0,0,.34-5.69c0-3,0-6,0-9,0-.38-.24-1,.56-1a4.39,4.39,0,0,1,1.09,1.06c-.54.1-.36.54-.36.85,0,2.68.07,5.36,0,8a34.27,34.27,0,0,1-.62,6.84A14,14,0,0,1,98.48,99c-3.21,2.18-6.64,4-10,5.95-2.83,1.66-5.7,3.26-8.54,4.91s-5.7,3.17-9,3.57A15.32,15.32,0,0,1,62.68,112c-4-1.84-7.83-4.16-11.72-6.29A2.1,2.1,0,0,1,50.26,105Z"/><path class="cls-13" d="M50.07,43.13l.15-.25c.08.57.35.19.52.09,2.4-1.42,4.79-2.86,7.2-4.25a29.21,29.21,0,0,1,7.18-3.3,13.47,13.47,0,0,1,9,.84c4.32,1.86,8.31,4.36,12.42,6.64,3.16,1.74,6.33,3.48,9.46,5.27,2.8,1.6,5.25,3.57,6.63,6.6a16.62,16.62,0,0,1,1.5,6.64c.06,4,0,8.07,0,12.1-.3.14-.45-.11-.64-.24a1.7,1.7,0,0,1-.38-.51.84.84,0,0,1-.07-.26c-.06-2.74,0-5.48,0-8.21a26.22,26.22,0,0,0-.55-6.38,12.64,12.64,0,0,0-5.17-7.52c-2.46-1.63-5-3-7.61-4.45-3-1.71-6-3.41-9.1-5a61.83,61.83,0,0,0-6.22-3.32,20.5,20.5,0,0,0-5.53-1.44,11.15,11.15,0,0,0-4.74.83,29.7,29.7,0,0,0-5.85,2.88c-2.44,1.53-5,2.85-7.43,4.42-.26.17-.58.35-.87,0A1.15,1.15,0,0,1,50.07,43.13Z"/><path class="cls-14" d="M103.65,73.12l.52.39.16.19c-.52.13-.33.56-.33.88,0,3.15,0,6.29,0,9.44a22.7,22.7,0,0,1-.93,7.6,12.85,12.85,0,0,1-4.73,6.3c-3.56,2.55-7.45,4.56-11.22,6.76-3.09,1.8-6.18,3.6-9.31,5.34a19.43,19.43,0,0,1-7,2.43A14.75,14.75,0,0,1,63,111.09,121.75,121.75,0,0,1,51.71,105a2.07,2.07,0,0,1-.39-.34l0-.13a1.47,1.47,0,0,1,1.13-.51c2.2,1.06,4.25,2.37,6.37,3.56,1.79,1,3.59,2,5.35,3,.3.44.78.5,1.23.64,4.22,1.28,8.16.38,11.87-1.72,5.76-3.25,11.51-6.53,17.19-9.91a20.58,20.58,0,0,0,6.11-4.86,13.45,13.45,0,0,0,2.62-7.27c.36-4.38.09-8.76.18-13.14C103.41,74,103.28,73.48,103.65,73.12Z"/><path class="cls-15" d="M50.07,43.13l0,1.23a.48.48,0,0,1-.16.34q-4.64,2.59-9,5.6a15.61,15.61,0,0,0-3.77,3.53,3.28,3.28,0,0,0-.61,1.26,3.19,3.19,0,0,1-.54,1,8.18,8.18,0,0,0-1.48,5.35c-.06,9-.05,17.93,0,26.9a8.67,8.67,0,0,0,3,6.56c.41.38.83.75,1.21,1.16a6.45,6.45,0,0,0,2.17,1.88c2.44,1.67,5.07,3,7.65,4.49.81.46,1.64.9,2.43,1.4.27.17.69.31.45.78l0,.07-.9.3A32.72,32.72,0,0,0,46,102.38a61.15,61.15,0,0,1-7.54-4.69,13.71,13.71,0,0,1-5.39-9.89c-.64-7.19-.35-14.4-.3-21.59a29.45,29.45,0,0,1,.63-7.42,15.48,15.48,0,0,1,3.4-6.58c2.57-2.87,5.91-4.69,9.13-6.67C47.32,44.71,48.7,43.93,50.07,43.13Z"/><path class="cls-16" d="M49.9,44.54l.15-.18c.6,0,.94-.46,1.37-.73,2.21-1.38,4.54-2.57,6.73-4A31.76,31.76,0,0,1,64,36.76a12.27,12.27,0,0,1,8.59,0A39.06,39.06,0,0,1,79.47,40c1.44.84,3,1.54,4.41,2.33,1.66.91,3.29,1.87,4.93,2.8s3,1.71,4.61,2.52,3.09,2,4.63,3c2.54,1.67,3.72,4.2,4.57,6.92a12.45,12.45,0,0,1,.52,4.31c-.06,1.13.17,2.27.15,3.42,0,2.44,0,4.88,0,7.33-.43.1-.59-.27-.84-.49a1.19,1.19,0,0,1-.23-.48c-.1-2.36,0-4.71,0-7.07a23.77,23.77,0,0,0-.77-7.33,10.46,10.46,0,0,0-3.25-5.15,58.78,58.78,0,0,0-8.77-5.39q-3.6-2-7.14-4c-1.3-.75-2.64-1.43-4-2.13a34.84,34.84,0,0,0-5-2.47,13,13,0,0,0-6.64-.94,1.93,1.93,0,0,0-.74.26,21.88,21.88,0,0,1-2.27.66,24.78,24.78,0,0,0-3.81,2c-3,1.79-6,3.65-9.08,5.4-.29.17-.6.54-1,.15A1.15,1.15,0,0,1,49.9,44.54Z"/><path class="cls-17" d="M102.59,72.11l.69.54,0,.16c0,5.06.26,10.12-.16,15.17a12.93,12.93,0,0,1-6.31,10.19c-3.74,2.4-7.64,4.52-11.48,6.75q-4,2.33-8,4.61a15.5,15.5,0,0,1-9.47,2.21c-.61-.07-1.36,0-1.72-.76a.77.77,0,0,1,.54-.2,10.92,10.92,0,0,0,6.1-.83,11.27,11.27,0,0,0,4.34-1.63c3.55-2.07,7.15-4.06,10.69-6.15,2.73-1.61,5.58-3,8.19-4.85a16.59,16.59,0,0,0,4.4-4.4,8.48,8.48,0,0,0,1.25-3.27,37.14,37.14,0,0,0,.5-6.66q0-4.9,0-9.8C102.18,72.81,102,72.28,102.59,72.11Z"/><path class="cls-18" d="M66.16,111a11.59,11.59,0,0,0,8.64-.57A108.14,108.14,0,0,0,85,104.83c2.5-1.43,5-2.86,7.49-4.27a33.75,33.75,0,0,0,6.81-4.65,11.32,11.32,0,0,0,3.42-6.79c.72-5.06.2-10.16.36-15.24,0-.36-.16-.77.2-1.07l.34.31c0,3.8,0,7.6,0,11.4a21.74,21.74,0,0,1-1,6.92A13.61,13.61,0,0,1,97,98.36c-3.44,2.3-7.09,4.24-10.65,6.34-3.2,1.9-6.45,3.73-9.72,5.5A15.12,15.12,0,0,1,68,112.06a14.82,14.82,0,0,1-3.41-.79c-.29-.09-.55-.24-.56-.6A2.27,2.27,0,0,1,66.16,111Z"/><path class="cls-19" d="M66.16,111,64,110.67c-3.87-1.94-7.53-4.25-11.32-6.33l-.4-.19a5.18,5.18,0,0,1-2.21-1c-3.34-1.91-6.7-3.78-10-5.71a5.38,5.38,0,0,1-1.48-1.07,10.79,10.79,0,0,1-4.13-5.73,9.56,9.56,0,0,1-.26-2.26c0-9,0-18,0-26.93a8.37,8.37,0,0,1,1.27-5.12,5.74,5.74,0,0,1,.41-.45c.37.28.25.69.29,1.06a5.22,5.22,0,0,0,2.44,4.2C44.35,64.49,50,68,55.9,71.11a17.9,17.9,0,0,0,7.85,2.18,8.83,8.83,0,0,0,3.62-.71c5.43-2.11,10.86-4.25,16.3-6.34.37-.14.91-.51,1.12-.12s-.4.67-.73.9c-4,2.84-8.06,5.75-12.2,8.45A10.43,10.43,0,0,0,67,84.71c-.06,8.31,0,16.62,0,24.92,0,.46.12,1-.26,1.35Z"/><path class="cls-20" d="M38.59,96.33l13.73,7.82-1,.45c0-.38-.31-.45-.56-.6-3.42-2-7-3.76-10.29-6C39.78,97.49,38.94,97.17,38.59,96.33Z"/><path class="cls-21" d="M66.67,111c0-8.8,0-17.6,0-26.4A11.1,11.1,0,0,1,69.54,77a9.19,9.19,0,0,1,1.57-1.27q6.66-4.64,13.32-9.24a.69.69,0,0,0,.28-.41L81,67.52Q74,70.26,67,73c-2.52,1-5,.52-7.5-.19a37,37,0,0,1-8.39-4.07c-4-2.34-7.92-4.72-11.93-7a6.13,6.13,0,0,1-3.26-5.89l.43-.82a7.19,7.19,0,0,1,2.73-2.9c3.34-2.19,6.83-4.12,10.24-6.19a.7.7,0,0,1,.58-.16C52.63,44.28,55.26,42.56,58,41a45.65,45.65,0,0,1,5.38-3c.79-.33,1.65-.39,2.45-.68a1.82,1.82,0,0,1,.86-.18c.29,0,.59,0,.88,0a9,9,0,0,1,3.88.84c3,1.6,6,3.33,9,5,4.78,2.61,9.51,5.31,14.31,7.89,1.88,1,3.72,2,4.71,4.08.37.77.64,1.58.94,2.38a15.63,15.63,0,0,1,.46,4.36c0,2.91,0,5.83,0,8.74,0,6.17,0,12.34,0,18.52a4.14,4.14,0,0,1-.16,1.48A9.33,9.33,0,0,1,96.06,97q-11,6.28-22,12.69c-.37.21-.78.23-1.14.43A9.83,9.83,0,0,1,66.67,111Z"/><path class="cls-22" d="M49.87,45.77c-2.68,1.61-5.34,3.26-8,4.84A18.28,18.28,0,0,0,36.32,55a3.77,3.77,0,0,1,1.28-2.14,23.28,23.28,0,0,1,4-3.35c2.33-1.58,4.77-3,7.15-4.48a10.19,10.19,0,0,1,1.11-.51Z"/><path class="cls-23" d="M72.89,110.12,81.67,105q7.23-4.17,14.46-8.31a9.15,9.15,0,0,0,4.35-6,17.7,17.7,0,0,0,.74-5.55c.07-4.1,0-8.21,0-12.32a5.22,5.22,0,0,1,.08-1.31.72.72,0,0,1,.15-.27c.51-.15.72.2.91.57l.21.32c-.32.28-.19.66-.19,1,0,3.82,0,7.65,0,11.47a25.6,25.6,0,0,1-.53,5.46,9.69,9.69,0,0,1-2.35,4.53,29.43,29.43,0,0,1-7.35,5.37c-1.72,1-3.45,1.91-5.12,3-1.25.8-2.6,1.43-3.88,2.17-1.48.86-2.94,1.75-4.42,2.62a26.1,26.1,0,0,1-4.88,2.35A3.82,3.82,0,0,1,72.89,110.12Z"/><path class="cls-24" d="M102.38,71.79l-.68-.59a.7.7,0,0,1-.23-.56c0-2.11,0-4.23,0-6.35,0-3.54-.11-7.08-2.38-10.1A13.93,13.93,0,0,0,95,50.67c-3.9-2.3-7.9-4.43-11.86-6.61-2-1.08-3.88-2.23-5.85-3.27a31.79,31.79,0,0,0-5.83-2.62,12.23,12.23,0,0,0-3.9-.89,1.12,1.12,0,0,0-.88,0l-.88,0a4.43,4.43,0,0,1,2.86-.5A16.8,16.8,0,0,1,73.53,38c2.08.77,3.87,2,5.83,3s4,2.11,5.9,3.22,3.68,2.11,5.55,3.11,3.85,2.18,5.72,3.36a11.39,11.39,0,0,1,4.2,4.45,15,15,0,0,1,1.62,6.34C102.52,64.86,102.39,68.33,102.38,71.79Z"/><path class="cls-25" d="M49.94,64.43l16.19-9.54q6.08-3.57,12.15-7.17a11.35,11.35,0,0,0,1.51-.9A2.14,2.14,0,0,1,83,47c-1.94,1.15-3.89,2.32-5.85,3.47L64.69,57.77l-12.37,7.3a1,1,0,0,1-1.28,0A8.09,8.09,0,0,0,49.94,64.43Z"/><path class="cls-26" d="M71.47,38.17a6.68,6.68,0,0,1,3.14,1c1.38.63,2.72,1.36,4,2.09s2.82,1.63,4.24,2.42,2.57,1.39,3.84,2.1c1.48.81,2.93,1.7,4.44,2.45s2.71,1.47,4,2.28c2.83,1.77,5.16,4,6,7.41a18.79,18.79,0,0,1,.55,4.68c-.06,2.86,0,5.73,0,8.6l-.17,0c-.24-.05-.32-.23-.35-.45a79.13,79.13,0,0,0-.21-9,20,20,0,0,0-.5-4.09c-.06-.24-.12-.46-.36-.57-.71-2.81-2.54-4.57-5.07-5.92-6.93-3.7-13.78-7.56-20.66-11.36Z"/><path class="cls-27" d="M101.33,70.89l.2.29c0,4.78,0,9.57,0,14.35a16.59,16.59,0,0,1-.57,4.32c-.08.3-.1.66-.45.82.33-3.65.09-7.32.14-11,0-3.11,0-6.22,0-9.33C101.1,70.25,101.15,70.66,101.33,70.89Z"/><path class="cls-28" d="M101.33,70.89l-.68-.53c0-3.39,0-6.79,0-10.18a9.82,9.82,0,0,0-.52-3.09c.57-.17.45.31.52.57a17.6,17.6,0,0,1,.68,4.72c0,2.46.32,4.92.21,7.39A6,6,0,0,1,101.33,70.89Z"/><path class="cls-16" d="M66.69,37.28a.63.63,0,0,1,.88,0Z"/></svg>