<svg id="Layer_1" data-name="Layer 1" xmlns="http://www.w3.org/2000/svg" viewBox="0 0 750 202.38"><defs><style>.cls-1,.cls-2{fill:#fff;}.cls-2{opacity:0;}.cls-3{fill:#007ec4;}.cls-4{fill:#009bd8;}</style></defs><path class="cls-1" d="M180.37,139.91,178.79,59a19.31,19.31,0,0,0-10-16.52l-74-40.81a13.15,13.15,0,0,0-13.15.25L9.33,45.57A19.3,19.3,0,0,0,0,62.47L1.59,143.4a19.29,19.29,0,0,0,10,16.53l74,40.81a13.17,13.17,0,0,0,13.15-.25l72.34-43.68A19.29,19.29,0,0,0,180.37,139.91Zm-28.23,6.47L98.29,178.9a13.17,13.17,0,0,1-13.16.26L30.05,148.77a19.31,19.31,0,0,1-10-16.52L18.91,72.9A19.31,19.31,0,0,1,28.23,56L82.09,23.48a13.15,13.15,0,0,1,13.15-.26l55.09,30.39a19.28,19.28,0,0,1,10,16.52l1.17,59.35A19.29,19.29,0,0,1,152.14,146.38Z"/><path class="cls-2" d="M161.47,129.39,160.3,70.05a19.28,19.28,0,0,0-10-16.53L95.24,23.14a13.15,13.15,0,0,0-13.15.25L28.23,55.91a19.29,19.29,0,0,0-9.32,16.9l1.16,59.35a19.32,19.32,0,0,0,10,16.53l55.08,30.38a13.17,13.17,0,0,0,13.16-.26l53.85-32.51A19.32,19.32,0,0,0,161.47,129.39ZM135,136.88,98,159.23a13.17,13.17,0,0,1-13.15.25L47,138.6a19.29,19.29,0,0,1-10-16.52L36.19,82.4a19.3,19.3,0,0,1,9.33-16.9l37-22.35a13.15,13.15,0,0,1,13.15-.25l37.85,20.88a19.29,19.29,0,0,1,10,16.52l.78,39.68A19.3,19.3,0,0,1,135,136.88Z"/><path class="cls-1" d="M80.28,157l-26.7-14.73C48.78,139.61,43.13,137.37,40,132c-3.78-6.36-3-11.45-3.15-17.54L36.34,90C36.23,84.46,35.12,79.1,38.41,73c3.52-6.5,8.41-8.33,13.6-11.46l26.1-15.76c3.29-2,6.24-4.55,10.85-4.55,4.91,0,7.7,2.17,11.24,4.12l26.69,14.72c5.3,2.92,9.91,4.11,14,10.91,3.2,5.26,2.63,11.32,2.74,16.86l.48,24.52c.12,6.42,1,12-2.81,18.23-3.29,5.35-8.43,7.5-12.86,10.17l-26.1,15.76c-3.1,1.87-6.36,4.39-10.32,4.56C87,161.34,84,159.05,80.28,157Z"/><path class="cls-3" d="M124.47,138.65l-22.24,13.43a22.1,22.1,0,0,1-22.09.43L57.39,140A32.43,32.43,0,0,1,40.63,112.2l-.39-20c-.1-4.87.75-13.36,2.69-17.66,2.66-5.92,7.23-7.27,13-10.74L77.63,50.6c3.71-2.24,7.81-5.42,12.94-5.26,3.45.11,6.84,2.25,10,4l22.6,13c5.34,2.94,10.86,5.54,14.16,11.78,2.5,4.72,2.36,11,2.46,16.47l.39,19.73"/><path class="cls-4" d="M140.29,117.83c-.4-12.59,0-22.93-1.07-37-.71-9.2-8.09-14-10.33-15.23L102,50.14c-8.06-4.49-11.24-7-19.74-2.33L47.75,68.64c-5.59,4-5.67,11.39-1.42,13.8L76.82,99.85c12.6,6.35,12.6,5.3,19.09,1.21L108,90.83l-10.14,19.1A15.59,15.59,0,0,0,96,117.38l1.11,37c4.83-.81,16.83-9.36,31.2-18C140.6,128.93,140.45,123,140.29,117.83Zm-30.43-58.3-41.33,28a1.33,1.33,0,0,1-1.48,0L64.2,85.82a.83.83,0,0,1,.24-1.15l41.87-27.4A1.52,1.52,0,0,1,108,57.2l2.12,1.18A.84.84,0,0,1,109.86,59.53Z"/><path class="cls-1" d="M367.64,75.88v1.73c0,8,0,16,0,24.07,0,1-.23,1.29-1.26,1.27-3.51-.07-7,0-10.53,0-.78,0-1-.21-1-1q0-24.48,0-49c0-.75.18-1,1-1,3,.05,5.92.07,8.88,0,.88,0,1.21.48,1.61,1q9.24,12.36,18.46,24.75c.26.35.53.69,1,1.31V77.47c0-8.07,0-16.14,0-24.21,0-1,.24-1.27,1.26-1.25,3.46.07,6.93.06,10.39,0,.91,0,1.12.25,1.12,1.13q0,24.35,0,48.69c0,.9-.24,1.13-1.13,1.11q-4.23-.07-8.48,0a1.91,1.91,0,0,1-1.79-.89Q378,89.7,368.82,77.4C368.52,77,368.21,76.61,367.64,75.88Z"/><path class="cls-1" d="M236.59,104c-6.05-.18-12.1-1.34-17.62-4.63-1.06-.63-1.42-1.17-.85-2.42,1.22-2.68,2.27-5.45,3.32-8.2.33-.84.58-.85,1.3-.38a26,26,0,0,0,15.77,4.39,10.27,10.27,0,0,0,3.58-.78,3.44,3.44,0,0,0,2.32-2.94,3.39,3.39,0,0,0-1.87-3.38,23,23,0,0,0-6.28-2.19A69.17,69.17,0,0,1,227.9,81c-5.58-2.24-9.16-6-9.48-12.3-.33-6.62,2.2-11.79,8.11-15.09a22.23,22.23,0,0,1,9.13-2.56,33.06,33.06,0,0,1,18.62,3.63c.81.43,1.1.79.71,1.75-1.15,2.82-2.19,5.68-3.21,8.55-.31.88-.55,1.08-1.46.56a22.7,22.7,0,0,0-13-3.42,9.33,9.33,0,0,0-3.81,1,3.93,3.93,0,0,0-2.25,3.63,3.44,3.44,0,0,0,2.21,3.17c2.36,1.26,5,1.69,7.53,2.35a55.85,55.85,0,0,1,7.16,2.2c5.1,2.11,8.48,5.62,9,11.32s-1.31,10.7-6.09,14.25C246.86,103.15,242,104,236.59,104Z"/><path class="cls-1" d="M260,77.34c0-8,0-16,0-24.06,0-1,.18-1.3,1.24-1.28,3.46.08,6.93.08,10.39,0,1.11,0,1.43.22,1.42,1.39C273,65.6,273,77.81,272.94,90c0,1.3.39,1.55,1.59,1.53,6.34,0,12.67,0,19,0,1.17,0,1.43.35,1.4,1.45-.07,3-.05,5.93,0,8.89,0,.82-.17,1.09-1,1.08q-16.49,0-32.95,0c-1,0-1-.4-1-1.12Q260,89.58,260,77.34Z"/><path class="cls-1" d="M215,77.47c0,8.07,0,16.14,0,24.21,0,1-.22,1.29-1.25,1.27-3.56-.07-7.12-.06-10.67,0-.9,0-1.12-.23-1.12-1.12q0-24.35,0-48.69c0-.88.2-1.14,1.11-1.13,3.56.06,7.11.06,10.67,0,1,0,1.27.22,1.26,1.26C215,61.34,215,69.4,215,77.47Z"/><path class="cls-1" d="M635.41,77.48c0-8.07,0-16.14,0-24.21,0-1,.26-1.28,1.28-1.27q14.49.06,29,0c1,0,1.41.19,1.26,1.25s.49,2.6-.26,3.25-2.08.18-3.16.18c-7.35,0-14.69,0-22,0-.93,0-1.22.18-1.21,1.17.06,5.29,0,10.58,0,15.87,0,.91.26,1.11,1.14,1.11,7.11,0,14.22,0,21.33,0,1.08,0,1.38.27,1.36,1.35-.06,3.28,0,3.28-3.34,3.28-6.43,0-12.86,0-19.28,0-.94,0-1.22.19-1.21,1.17q.07,8.28,0,16.56c0,.94.2,1.2,1.18,1.2,8.39,0,16.78,0,25.17,0,1,0,1.45.22,1.33,1.32s.32,2.51-.23,3.15-2.06.19-3.14.19c-9.3,0-18.6,0-27.9,0-1,0-1.3-.21-1.29-1.26C635.43,93.62,635.41,85.55,635.41,77.48Z"/><path class="cls-1" d="M717.8,92.74a21.6,21.6,0,0,0,16.89,6.08,14.65,14.65,0,0,0,5.79-1.42,8,8,0,0,0,4.71-7.56c0-3.33-1.63-5.6-4.46-7.1-3.13-1.66-6.58-2.36-9.94-3.33a40.83,40.83,0,0,1-6-2.12c-5.41-2.53-7.91-6.47-7.71-12.18s3.23-10.33,8.65-12.22a24.34,24.34,0,0,1,21.49,2.4c.78.47,1,.92.57,1.72-.49,1-.88,2.08-1.32,3.12-.94-.52-1.86-1.07-2.81-1.56a20.05,20.05,0,0,0-14.82-1.85c-5.18,1.36-7.89,5.76-6.73,10.66a7.8,7.8,0,0,0,4.36,5.14,43.55,43.55,0,0,0,8.89,3A49.37,49.37,0,0,1,742.41,78c5,2.28,7.69,6.1,7.59,11.69s-2.66,9.64-7.74,12c-7.56,3.54-19.4,1.75-25.34-3.74-.78-.73-1.06-1.32-.47-2.31A29.32,29.32,0,0,0,717.8,92.74Z"/><path class="cls-1" d="M205.53,135q15.18-.43,30.35-.85l68.63-1.84c7.65-.2,15.31-.39,23-.63,1,0,1.26.18,1.21,1.16-.09,1.64-.08,3.29,0,4.92,0,.86-.2,1.07-1.05,1-4-.15-7.93-.22-11.89-.33l-101.16-2.76-8.21-.25c-.25-.17-.57,0-.83-.16A.22.22,0,0,1,205.53,135Z"/><path class="cls-1" d="M744.24,135.44l-53.45,1.44q-33.56.93-67.12,1.9c-1.43,0-1.88-.29-1.74-1.72a30.35,30.35,0,0,0,0-4.37c0-.87.23-1.06,1.07-1q16.88.5,33.76.92l36.64,1L745.07,135a.23.23,0,0,1,.07.2c0,.06,0,.1-.06.1C744.81,135.4,744.5,135.27,744.24,135.44Z"/><path class="cls-1" d="M472,79.89c0,7.2,0,14.4,0,21.61,0,1.06-.14,1.59-1.37,1.45s-2.64.36-3.29-.21-.23-2.22-.23-3.39q0-20.65,0-41.3c0-1.15-.28-1.41-1.4-1.4-4.56.08-9.12,0-13.68.06-.91,0-1.17-.25-1.1-1.13.09-1.13-.38-2.65.19-3.3s2.22-.24,3.38-.25c10.76,0,21.52,0,32.28,0,1,0,1.49.22,1.34,1.33s.45,2.48-.22,3.15-2.08.19-3.16.19c-3.88,0-7.75,0-11.63,0-1,0-1.17.28-1.17,1.21C472,65.21,472,72.55,472,79.89Z"/><path class="cls-1" d="M378.49,135c0-4.37,0-8.75,0-13.12,0-.81.08-1.22,1.07-1.2s1.12.26,1.11,1.14c-.05,3.64,0,7.29,0,10.93,0,.82.1,1.18,1.07,1.17q8.55-.07,17.09,0c.9,0,1-.28,1-1.08,0-3.69,0-7.38,0-11.07,0-.8.13-1.12,1-1.09s1.17.15,1.17,1.11q-.06,13.26,0,26.53c0,.85-.16,1.16-1.1,1.17s-1.09-.34-1.08-1.17c0-3.78,0-7.57,0-11.35,0-.9-.13-1.24-1.15-1.23-5.65.06-11.3.05-17,0-.94,0-1.1.29-1.09,1.14,0,3.83,0,7.66,0,11.49,0,.74,0,1.18-1,1.11-.77-.06-1.21-.06-1.2-1.08C378.53,143.93,378.49,139.46,378.49,135Z"/><path class="cls-1" d="M557.61,135.14c0,4.33,0,8.66,0,13,0,.9-.06,1.35-1.2,1.36s-.95-.76-1-1.41c0-3.74,0-7.48,0-11.21,0-.87-.19-1.14-1.1-1.14-5.65.05-11.31.06-17,0-1,0-1.14.36-1.13,1.24,0,3.78,0,7.57,0,11.35,0,.84-.15,1.16-1.09,1.16s-1.1-.35-1.09-1.18q0-13.28,0-26.53c0-1,.36-1,1.17-1.1s1,.32,1,1.1c0,3.69,0,7.38,0,11.07,0,.82.16,1.07,1,1.07q8.55-.07,17.09,0c1,0,1.07-.38,1.06-1.17,0-3.56,0-7.11,0-10.67,0-.77-.17-1.43,1.1-1.42s1,.78,1,1.5C557.62,126.48,557.61,130.81,557.61,135.14Z"/><path class="cls-1" d="M518.46,149.73a15.57,15.57,0,0,1-9.4-3.15c-.45-.36-.94-.65-.45-1.43s.65-.81,1.37-.26a14.21,14.21,0,0,0,12.91,2.37,6.1,6.1,0,0,0,2.39-1.28,4.8,4.8,0,0,0-.43-7.73c-1.9-1.25-4.12-1.65-6.27-2.21a29.32,29.32,0,0,1-5.69-1.85,6.31,6.31,0,0,1-3.87-5.94,6.54,6.54,0,0,1,3.73-6.36c4.92-2.36,9.79-1.85,14.53.68,1,.5.35,1,.15,1.56-.33.89-.79.24-1.14.05a14.35,14.35,0,0,0-10.16-1.56,7.48,7.48,0,0,0-2.29.87,5.1,5.1,0,0,0-2.69,4.73,4.63,4.63,0,0,0,2.81,4.19c2.28,1.19,4.82,1.58,7.27,2.25a19.63,19.63,0,0,1,4.34,1.59,6.7,6.7,0,0,1,.7,11.45C524,149.31,521.42,149.68,518.46,149.73Z"/><path class="cls-1" d="M362.93,149.73a15.55,15.55,0,0,1-9.51-3.12c-.34-.28-1-.51-.63-1.17s.52-1.33,1.59-.51c3.82,3,8.16,3.55,12.79,2.34a6.23,6.23,0,0,0,2.29-1.17,4.8,4.8,0,0,0-.37-7.89,20.34,20.34,0,0,0-6.14-2.16,28.5,28.5,0,0,1-5.82-1.9,6.27,6.27,0,0,1-3.78-5.71,6.8,6.8,0,0,1,3.32-6.34c3.85-2.43,11.32-2.14,15,.5.88.63.2,1.09,0,1.6-.31.83-.75.16-1,0a14.41,14.41,0,0,0-10.16-1.59,7.63,7.63,0,0,0-2.4.93,5.05,5.05,0,0,0-2.62,4.63,4.61,4.61,0,0,0,2.76,4.22c2.28,1.21,4.82,1.6,7.28,2.26a19.74,19.74,0,0,1,4.46,1.64,6.7,6.7,0,0,1,.76,11.3C368.48,149.28,365.83,149.66,362.93,149.73Z"/><path class="cls-1" d="M567.78,135.13c0,4.38,0,8.76,0,13.14,0,.75,0,1.26-1,1.21-.85,0-1.15-.2-1.15-1.13q.06-13.28,0-26.54c0-.91.25-1.11,1.13-1.14s1,.42,1,1.19C567.77,126.29,567.78,130.71,567.78,135.13Z"/><path class="cls-1" d="M747,135a3.8,3.8,0,0,1-1.89.24,1.93,1.93,0,0,0,0-.24Z"/><path class="cls-1" d="M451.72,75.41c-.35-5.63-2-10.82-5.78-15.14-5-5.7-11.48-8-18.82-8.19-7.15-.15-14.31,0-21.46-.07-1.06,0-1.25.3-1.24,1.29,0,8,0,16,0,24.06s0,16.22,0,24.33c0,1,.27,1.31,1.28,1.25,1.45-.09,2.91,0,4.37,0,6.7-.12,13.41.45,20.08-.29,8.18-.9,14.65-4.69,18.64-12.13A27.63,27.63,0,0,0,451.72,75.41Zm-13.94,7.71a11.65,11.65,0,0,1-10.63,8.27c-3,.16-5.93,0-8.89.09-1,0-.82-.57-.82-1.15v-13c0-4.24,0-8.48,0-12.72,0-.86.17-1.18,1.11-1.15,2.65.07,5.29,0,7.93.05a11.79,11.79,0,0,1,11.47,8.84A18,18,0,0,1,437.78,83.12Z"/><path class="cls-1" d="M351.63,102.21q-9.86-24.67-19.71-49.37a1.15,1.15,0,0,0-1.31-.82c-3.55,0-7.11.06-10.67,0a1.49,1.49,0,0,0-1.66,1.15q-9.67,24.39-19.4,48.76c-.11.29-.46.6-.16,1,4,0,8.11,0,12.16,0,.76,0,1-.31,1.23-.94.93-2.66,1.93-5.29,2.87-8,.24-.65.48-1,1.31-1,5.84,0,11.67,0,17.51,0a1.19,1.19,0,0,1,1.34,1c.93,2.66,1.91,5.3,2.88,7.94.18.49.26,1,1.05,1,4.23,0,8.47,0,12.79,0C351.77,102.62,351.71,102.41,351.63,102.21ZM329.76,82.47c-3.18-.07-6.36,0-9.54,0-.62,0-1.08.06-.75-.85,1.85-5,3.65-10,5.47-15,.54.18.5.68.63,1,1.67,4.55,3.3,9.12,5,13.67C330.86,82.12,330.93,82.5,329.76,82.47Z"/><path class="cls-1" d="M627.74,75.09C627,61.6,617.15,52.17,603.62,52c-5.93,0-11.85,0-17.78,0-1.06,0-1.36.24-1.35,1.33,0,8,0,16,0,24.07s0,16.24,0,24.35c0,.79.06,1.21,1.06,1.2,6.29-.06,12.6.18,18.88-.08,9.78-.41,17.09-4.89,21.17-14A29,29,0,0,0,627.74,75.09Zm-10.84,18a18.82,18.82,0,0,1-13.16,5.14c-4.42.1-8.84,0-13.27.06-.92,0-1.1-.29-1.09-1.14,0-6.57,0-13.13,0-19.69s0-13,0-19.56c0-1,.24-1.27,1.26-1.25,4.06.06,8.12,0,12.17,0,11.57,0,19.54,7.52,20.19,19.09C623.36,82.36,621.83,88.37,616.9,93.1Z"/><path class="cls-1" d="M528.46,101.59q-4.9-7.64-9.82-15.27c-.3-.47-.65-.82.22-1.17,6.36-2.61,9.27-7.64,9.68-14.26.34-5.43-.85-10.44-5-14.29-3.61-3.33-8.08-4.47-12.83-4.55-5.56-.09-11.12,0-16.68,0-1.11,0-1.44.22-1.43,1.39,0,15.27,0,30.53,0,45.8,0,1.21-.55,2.88.24,3.52s2.35.12,3.56.23c1,.09,1.09-.31,1.08-1.15,0-4.55,0-9.11-.05-13.67,0-1.19.35-1.36,1.43-1.37,4.69,0,9.39.24,14.07-.15.71-.06.84.43,1.09.82,2.5,3.86,5,7.74,7.47,11.59.86,1.32,1.36,3.22,2.73,3.77s3.22.11,5.06.09Zm-16.6-19.52c-4.55.23-9.11.06-13.66.12-.95,0-.73-.57-.73-1.07,0-3.92,0-7.84,0-11.75s0-7.66,0-11.48c0-.89.12-1.27,1.15-1.23,4.68.17,9.39-.28,14.06.24,8.88,1,11.87,7.53,10.91,14.77C522.71,78,518.54,81.73,511.86,82.07Z"/><path class="cls-1" d="M711.77,101.59,702,86.32c-.3-.47-.66-.82.21-1.17,6.37-2.61,9.28-7.64,9.69-14.26.33-5.43-.86-10.44-5.05-14.3-3.61-3.32-8.07-4.46-12.83-4.54-5.56-.09-11.12,0-16.68,0-1.11,0-1.43.22-1.43,1.39,0,15.31,0,30.63,0,45.94,0,1.17-.52,2.72.24,3.39s2.17.09,3.29.23,1.38-.35,1.37-1.43c-.07-4.47,0-8.93,0-13.4,0-1,.13-1.37,1.28-1.38,4.74,0,9.48.25,14.21-.14.7-.06.84.43,1.09.82,2.49,3.86,5,7.74,7.47,11.59.86,1.32,1.36,3.22,2.73,3.77s3.22.11,5.05.09C712.25,102.34,712,102,711.77,101.59ZM695.08,82.08c-4.5.21-9,0-13.53.11-.9,0-.77-.49-.77-1V57.66c0-.47-.18-1,.67-1,4.87.15,9.76-.32,14.61.25,8.7,1,11.72,7.34,10.84,14.57C706.11,78,701.84,81.77,695.08,82.08Z"/><path class="cls-1" d="M579.59,101.71,560.42,55.23c-1.32-3.2-1.32-3.14-4.76-3.23-1.13,0-1.53.38-1.93,1.36q-8,19.41-16,38.79c-1.47,3.56-2.92,7.12-4.42,10.77,1.47,0,2.79-.06,4.11,0,.79,0,1.09-.28,1.36-1,1.54-3.94,3.15-7.84,4.68-11.78a1.33,1.33,0,0,1,1.49-1q11.76.06,23.52,0a1.25,1.25,0,0,1,1.38,1c1.11,2.88,2.27,5.75,3.44,8.61.56,1.37.82,3.31,1.86,3.94s3,.19,4.55.19a1.44,1.44,0,0,0,.32-.07C579.88,102.46,579.74,102.08,579.59,101.71ZM545.68,84.84l11-27.19,11,27.19Z"/><path class="cls-1" d="M498.41,147.25c-.89-.76-1.62-1.72-2.46-2.56a1,1,0,0,1-.19-1.41,21.69,21.69,0,0,0,1.89-5.1c.25-.89-.3-.91-.86-1.16-.87-.38-.8.3-.89.71a18.32,18.32,0,0,1-1.86,4.93c-2.7-2.86-5.35-5.68-8-8.47-.5-.53-.23-.69.22-1a15.82,15.82,0,0,0,4.75-3.85,5.35,5.35,0,0,0-2.43-8.49,8.72,8.72,0,0,0-6.41.28,5.26,5.26,0,0,0-3.28,4.93c-.14,2.71,1.33,4.67,3,6.49.57.61.66.89-.16,1.36a18.3,18.3,0,0,0-4.41,3.43c-3.7,4-2.47,9.69,2.68,11.5,4.95,1.73,9.61,1.07,13.57-2.63.6-.57.85-.51,1.34,0,1.1,1.26,2.28,2.46,3.38,3.64C499.72,149,499.53,148.19,498.41,147.25ZM480.79,127c0-2.51,1-4,2.85-4.61a6.76,6.76,0,0,1,3.51-.19,3.87,3.87,0,0,1,2.39,6.25c-1.24,1.7-3.08,2.66-4.82,3.74-.21.12-.45.2-.63,0C482.56,130.48,480.86,128.9,480.79,127Zm11.6,18a10.56,10.56,0,0,1-7.74,3.1,10.36,10.36,0,0,1-4.49-1,5.29,5.29,0,0,1-1.84-8,17.42,17.42,0,0,1,5.05-4.09c.44-.27.65-.07.91.21,2.73,2.87,5.44,5.76,8.19,8.6C493,144.2,492.78,144.49,492.39,144.91Z"/><path class="cls-1" d="M422.23,120.43c-8.57,0-15,6.22-15,14.58s6.4,14.7,15,14.7,14.94-6.2,15-14.57S430.85,120.43,422.23,120.43Zm-.05,27.37a12.49,12.49,0,0,1-12.82-12.75c0-7.32,5.55-12.74,13-12.71a12.73,12.73,0,1,1-.17,25.46Z"/><path class="cls-1" d="M455.76,121c-4.26-.64-8.55-.15-12.83-.3-1,0-.68.65-.68,1.12q0,6.63,0,13.26c0,4.42,0,8.84,0,13.26,0,.89.23,1.12,1.13,1.15s1.06-.41,1-1.19c0-2.33,0-4.65,0-7,0-.93.19-1.21,1.17-1.22,3.41,0,6.84.33,10.23-.26,3.62-.63,6.52-2.32,7.78-6C465.65,127.68,462.2,122,455.76,121Zm5.71,12.41c-1.28,3.45-4.21,4.52-7.48,4.74-2.95.2-5.92,0-8.89.1-.8,0-.72-.44-.72-1,0-2.32,0-4.65,0-7s0-4.56,0-6.84c0-.46-.09-.91.65-.88,3.46.15,6.94-.3,10.38.28C460.66,123.76,463.32,128.39,461.47,133.4Z"/><path class="cls-1" d="M590.16,121.17c-2.65-.69-5.34-.39-7.67-.47-2.17,0-4,0-5.82,0-.7,0-.93.18-.92.91q0,13.47,0,26.93c0,1,.54.88,1.18.93s1-.13,1-.94c-.06-2.19,0-4.38,0-6.56,0-1.82,0-1.78,1.74-1.82,3.23-.08,6.47.24,9.69-.28,4.9-.8,8-4.13,8.25-8.74C597.82,125.91,595.24,122.48,590.16,121.17Zm4.9,12.06c-1.25,3.59-4.25,4.7-7.64,4.92-2.91.18-5.84,0-8.75.09-.75,0-.78-.33-.77-.9,0-2.33,0-4.65,0-7s0-4.56,0-6.84c0-.41-.19-.94.6-.91,3.45.13,6.93-.3,10.37.26C594.11,123.74,596.79,128.22,595.06,133.23Z"/></svg>